<?xml version="1.0" encoding="UTF-8" standalone="no"?>
<!DOCTYPE svg PUBLIC "-//W3C//DTD SVG 1.1//EN" "http://www.w3.org/Graphics/SVG/1.1/DTD/svg11.dtd">
<svg width="100%" height="100%" viewBox="0 0 3000 500" version="1.1" xmlns="http://www.w3.org/2000/svg" xmlns:xlink="http://www.w3.org/1999/xlink" xml:space="preserve" xmlns:serif="http://www.serif.com/" style="fill-rule:evenodd;clip-rule:evenodd;stroke-linejoin:round;stroke-miterlimit:2;">
    <g transform="matrix(1,0,0,1,36.6211,0)">
        <g transform="matrix(1,0,0,1,8.24535,-971.251)">
            <g transform="matrix(1.37906,0,0,1.37906,-679.165,240.263)">
                <g transform="matrix(1,0,0,1.05147,-5,-57.4127)">
                    <path d="M1085.8,862.894L1065.91,881.915L541.971,881.915L561.857,862.894L1085.8,862.894Z" style="fill:rgb(0,255,255);"/>
                </g>
                <g transform="matrix(0.963847,0,0,1.05147,74.4511,-127.413)">
                    <path d="M1085.8,862.894L1065.91,881.915L878.297,881.915L898.183,862.894L1085.8,862.894Z" style="fill:rgb(0,255,255);"/>
                </g>
                <g transform="matrix(0.869636,0,0,1.05147,65.4002,-187.07)">
                    <path d="M1085.8,862.894L1065.91,881.915L855.818,881.915L875.703,862.894L1085.8,862.894Z" style="fill:rgb(0,255,255);"/>
                </g>
                <g transform="matrix(0.936531,0,0,1.05147,-95.2375,-236.911)">
                    <path d="M1049.49,862.894L1029.6,881.915L835.932,881.915L855.818,862.894L1049.49,862.894Z" style="fill:rgb(0,255,255);"/>
                </g>
                <g transform="matrix(0.932755,0,0,1.05147,-166.458,-285.752)">
                    <path d="M1085.8,862.894L1065.91,881.915L871.38,881.915L891.266,862.894L1085.8,862.894Z" style="fill:rgb(0,255,255);"/>
                </g>
                <g transform="matrix(1,0,0,1.05157,38.9066,-330.681)">
                    <path d="M1161.02,862.894L1141.13,881.915L643.128,881.915L663.014,862.894L1161.02,862.894Z" style="fill:rgb(0,255,255);"/>
                </g>
            </g>
            <g transform="matrix(1.37906,0,0,1.37906,-679.165,240.263)">
                <g transform="matrix(1,0,0,1.05147,503.783,-57.4127)">
                    <path d="M1032.68,862.894L1012.79,881.915L879.507,881.915L899.393,862.894L1032.68,862.894Z" style="fill:rgb(0,255,255);"/>
                </g>
                <g transform="matrix(1,0,0,1.05147,533.532,-127.413)">
                    <path d="M1052.05,862.894L1032.16,881.915L934.184,881.915L954.07,862.894L1052.05,862.894Z" style="fill:rgb(0,255,255);"/>
                </g>
                <g transform="matrix(1,0,0,1.05147,464.717,-187.07)">
                    <path d="M1156.07,862.894L1136.19,881.915L757.324,881.915L777.209,862.894L1156.07,862.894Z" style="fill:rgb(0,255,255);"/>
                </g>
                <g transform="matrix(1,0,0,1.05147,311.304,-236.911)">
                    <path d="M1085.8,862.894L1065.91,881.915L953.793,881.915L973.679,862.894L1085.8,862.894Z" style="fill:rgb(0,255,255);"/>
                </g>
                <g transform="matrix(1,0,0,1.05147,352.424,-285.752)">
                    <path d="M1085.8,862.894L1065.91,881.915L963.788,881.915L983.673,862.894L1085.8,862.894Z" style="fill:rgb(0,255,255);"/>
                </g>
                <g transform="matrix(1,0,0,1.05147,555.88,-236.911)">
                    <path d="M1085.8,862.894L1065.91,881.915L969.84,881.915L989.725,862.894L1085.8,862.894Z" style="fill:rgb(0,255,255);"/>
                </g>
                <g transform="matrix(1,0,0,1.05147,611.165,-285.752)">
                    <path d="M1059.24,862.894L1039.35,881.915L952.721,881.915L972.607,862.894L1059.24,862.894Z" style="fill:rgb(0,255,255);"/>
                </g>
                <g transform="matrix(1,0,0,1.05147,580.759,-330.592)">
                    <path d="M888.776,862.894L868.89,881.915L767.949,881.915L787.835,862.894L888.776,862.894Z" style="fill:rgb(0,255,255);"/>
                </g>
                <g transform="matrix(1,0,0,1.05147,808.09,-327.272)">
                    <path d="M888.776,862.894L868.89,881.915L786.775,881.915L806.66,862.894L888.776,862.894Z" style="fill:rgb(0,255,255);"/>
                </g>
            </g>
            <g transform="matrix(1.37906,0,0,1.37906,-679.165,240.263)">
                <g transform="matrix(1,0,0,1,942.649,-13)">
                    <path d="M1110.49,862.894L1090.61,881.915L799.965,881.915L819.851,862.894L1110.49,862.894Z" style="fill:rgb(0,255,255);"/>
                </g>
                <g transform="matrix(1,0,0,1,854.918,-83.0007)">
                    <path d="M1034.64,862.894L1014.76,881.915L934.184,881.915L954.07,862.894L1034.64,862.894Z" style="fill:rgb(0,255,255);"/>
                </g>
                <g transform="matrix(1,0,0,1,911.552,-142.657)">
                    <path d="M996.988,862.894L977.103,881.915L908.627,881.915L928.512,862.894L996.988,862.894Z" style="fill:rgb(0,255,255);"/>
                </g>
                <g transform="matrix(1,0,0,1,876.311,-192.498)">
                    <path d="M1048.62,862.894L1028.74,881.915L969.84,881.915L989.725,862.894L1048.62,862.894Z" style="fill:rgb(0,255,255);"/>
                </g>
                <g transform="matrix(1,0,0,1,925.565,-241.339)">
                    <path d="M1028.32,862.894L1008.44,881.915L952.721,881.915L972.607,862.894L1028.32,862.894Z" style="fill:rgb(0,255,255);"/>
                </g>
                <g transform="matrix(1,0,0,1,1138.83,-282.86)">
                    <path d="M841.397,862.894L821.511,881.915L765.969,881.915L785.855,862.894L841.397,862.894Z" style="fill:rgb(0,255,255);"/>
                </g>
            </g>
            <g transform="matrix(1.37906,0,0,1.37906,-679.165,240.263)">
                <g transform="matrix(1,0,0,1,1369.88,-13)">
                    <path d="M945.044,862.894L925.158,881.915L851.979,881.915L871.864,862.894L945.044,862.894Z" style="fill:rgb(0,255,255);"/>
                </g>
                <g transform="matrix(1,0,0,1,1288.24,-83.0007)">
                    <path d="M1057.58,862.894L1037.69,881.915L966.831,881.915L986.717,862.894L1057.58,862.894Z" style="fill:rgb(0,255,255);"/>
                </g>
                <g transform="matrix(1,0,0,1,1363.58,-142.657)">
                    <path d="M1006.51,862.894L986.62,881.915L918.034,881.915L937.919,862.894L1006.51,862.894Z" style="fill:rgb(0,255,255);"/>
                </g>
                <g transform="matrix(1,0,0,1,1328.78,-192.498)">
                    <path d="M1060.8,862.894L1040.91,881.915L974.267,881.915L994.152,862.894L1060.8,862.894Z" style="fill:rgb(0,255,255);"/>
                </g>
                <g transform="matrix(1,0,0,1,1377.59,-241.339)">
                    <path d="M1036.76,862.894L1016.87,881.915L936.121,881.915L956.006,862.894L1036.76,862.894Z" style="fill:rgb(0,255,255);"/>
                </g>
                <g transform="matrix(1,0,0,1,1597.98,-282.86)">
                    <path d="M982.913,862.894L963.027,881.915L550.168,881.915L570.053,862.894L982.913,862.894Z" style="fill:rgb(0,255,255);"/>
                </g>
            </g>
        </g>
        <g transform="matrix(1,0,0,1,-17.6134,-987.742)">
            <g transform="matrix(1.37906,0,0,1.37906,-679.165,240.263)">
                <g transform="matrix(1,0,0,1.05147,-5,-57.4127)">
                    <path d="M1085.8,862.894L1065.91,881.915L541.971,881.915L561.857,862.894L1085.8,862.894Z" style="fill:rgb(255,255,0);"/>
                </g>
                <g transform="matrix(0.963847,0,0,1.05147,74.4511,-127.413)">
                    <path d="M1085.8,862.894L1065.91,881.915L878.297,881.915L898.183,862.894L1085.8,862.894Z" style="fill:rgb(255,255,0);"/>
                </g>
                <g transform="matrix(0.869636,0,0,1.05147,65.4002,-187.07)">
                    <path d="M1085.8,862.894L1065.91,881.915L855.818,881.915L875.703,862.894L1085.8,862.894Z" style="fill:rgb(255,255,0);"/>
                </g>
                <g transform="matrix(0.936531,0,0,1.05147,-95.2375,-236.911)">
                    <path d="M1049.49,862.894L1029.6,881.915L835.932,881.915L855.818,862.894L1049.49,862.894Z" style="fill:rgb(255,255,0);"/>
                </g>
                <g transform="matrix(0.932755,0,0,1.05147,-166.458,-285.752)">
                    <path d="M1085.8,862.894L1065.91,881.915L871.38,881.915L891.266,862.894L1085.8,862.894Z" style="fill:rgb(255,255,0);"/>
                </g>
                <g transform="matrix(1,0,0,1.05157,38.9066,-330.681)">
                    <path d="M1161.02,862.894L1141.13,881.915L643.128,881.915L663.014,862.894L1161.02,862.894Z" style="fill:rgb(255,255,0);"/>
                </g>
            </g>
            <g transform="matrix(1.37906,0,0,1.37906,-679.165,240.263)">
                <g transform="matrix(1,0,0,1.05147,503.783,-57.4127)">
                    <path d="M1032.68,862.894L1012.79,881.915L879.507,881.915L899.393,862.894L1032.68,862.894Z" style="fill:rgb(255,255,0);"/>
                </g>
                <g transform="matrix(1,0,0,1.05147,533.532,-127.413)">
                    <path d="M1052.05,862.894L1032.16,881.915L934.184,881.915L954.07,862.894L1052.05,862.894Z" style="fill:rgb(255,255,0);"/>
                </g>
                <g transform="matrix(1,0,0,1.05147,464.717,-187.07)">
                    <path d="M1156.07,862.894L1136.19,881.915L757.324,881.915L777.209,862.894L1156.07,862.894Z" style="fill:rgb(255,255,0);"/>
                </g>
                <g transform="matrix(1,0,0,1.05147,311.304,-236.911)">
                    <path d="M1085.8,862.894L1065.91,881.915L953.793,881.915L973.679,862.894L1085.8,862.894Z" style="fill:rgb(255,255,0);"/>
                </g>
                <g transform="matrix(1,0,0,1.05147,352.424,-285.752)">
                    <path d="M1085.8,862.894L1065.91,881.915L963.788,881.915L983.673,862.894L1085.8,862.894Z" style="fill:rgb(255,255,0);"/>
                </g>
                <g transform="matrix(1,0,0,1.05147,555.88,-236.911)">
                    <path d="M1085.8,862.894L1065.91,881.915L969.84,881.915L989.725,862.894L1085.8,862.894Z" style="fill:rgb(255,255,0);"/>
                </g>
                <g transform="matrix(1,0,0,1.05147,611.165,-285.752)">
                    <path d="M1059.24,862.894L1039.35,881.915L952.721,881.915L972.607,862.894L1059.24,862.894Z" style="fill:rgb(255,255,0);"/>
                </g>
                <g transform="matrix(1,0,0,1.05147,580.759,-330.592)">
                    <path d="M888.776,862.894L868.89,881.915L767.949,881.915L787.835,862.894L888.776,862.894Z" style="fill:rgb(255,255,0);"/>
                </g>
                <g transform="matrix(1,0,0,1.05147,808.09,-327.272)">
                    <path d="M888.776,862.894L868.89,881.915L786.775,881.915L806.66,862.894L888.776,862.894Z" style="fill:rgb(255,255,0);"/>
                </g>
            </g>
            <g transform="matrix(1.37906,0,0,1.37906,-679.165,240.263)">
                <g transform="matrix(1,0,0,1,942.649,-13)">
                    <path d="M1110.49,862.894L1090.61,881.915L799.965,881.915L819.851,862.894L1110.49,862.894Z" style="fill:rgb(255,255,0);"/>
                </g>
                <g transform="matrix(1,0,0,1,854.918,-83.0007)">
                    <path d="M1034.64,862.894L1014.76,881.915L934.184,881.915L954.07,862.894L1034.64,862.894Z" style="fill:rgb(255,255,0);"/>
                </g>
                <g transform="matrix(1,0,0,1,911.552,-142.657)">
                    <path d="M996.988,862.894L977.103,881.915L908.627,881.915L928.512,862.894L996.988,862.894Z" style="fill:rgb(255,255,0);"/>
                </g>
                <g transform="matrix(1,0,0,1,876.311,-192.498)">
                    <path d="M1048.62,862.894L1028.74,881.915L969.84,881.915L989.725,862.894L1048.62,862.894Z" style="fill:rgb(255,255,0);"/>
                </g>
                <g transform="matrix(1,0,0,1,925.565,-241.339)">
                    <path d="M1028.32,862.894L1008.44,881.915L952.721,881.915L972.607,862.894L1028.32,862.894Z" style="fill:rgb(255,255,0);"/>
                </g>
                <g transform="matrix(1,0,0,1,1138.83,-282.86)">
                    <path d="M841.397,862.894L821.511,881.915L765.969,881.915L785.855,862.894L841.397,862.894Z" style="fill:rgb(255,255,0);"/>
                </g>
            </g>
            <g transform="matrix(1.37906,0,0,1.37906,-679.165,240.263)">
                <g transform="matrix(1,0,0,1,1369.88,-13)">
                    <path d="M945.044,862.894L925.158,881.915L851.979,881.915L871.864,862.894L945.044,862.894Z" style="fill:rgb(255,255,0);"/>
                </g>
                <g transform="matrix(1,0,0,1,1288.24,-83.0007)">
                    <path d="M1057.58,862.894L1037.69,881.915L966.831,881.915L986.717,862.894L1057.58,862.894Z" style="fill:rgb(255,255,0);"/>
                </g>
                <g transform="matrix(1,0,0,1,1363.58,-142.657)">
                    <path d="M1006.51,862.894L986.62,881.915L918.034,881.915L937.919,862.894L1006.51,862.894Z" style="fill:rgb(255,255,0);"/>
                </g>
                <g transform="matrix(1,0,0,1,1328.78,-192.498)">
                    <path d="M1060.8,862.894L1040.91,881.915L974.267,881.915L994.152,862.894L1060.8,862.894Z" style="fill:rgb(255,255,0);"/>
                </g>
                <g transform="matrix(1,0,0,1,1377.59,-241.339)">
                    <path d="M1036.76,862.894L1016.87,881.915L936.121,881.915L956.006,862.894L1036.76,862.894Z" style="fill:rgb(255,255,0);"/>
                </g>
                <g transform="matrix(1,0,0,1,1597.98,-282.86)">
                    <path d="M982.913,862.894L963.027,881.915L550.168,881.915L570.053,862.894L982.913,862.894Z" style="fill:rgb(255,255,0);"/>
                </g>
            </g>
        </g>
        <g transform="matrix(1,0,0,1,-41.2267,-2.42239)">
            <g transform="matrix(1.37906,0,0,1.37906,-679.165,-761.547)">
                <g transform="matrix(1,0,0,1.05147,-5,-57.4127)">
                    <path d="M1085.8,862.894L1065.91,881.915L541.971,881.915L561.857,862.894L1085.8,862.894Z" style="fill:rgb(255,0,255);"/>
                </g>
                <g transform="matrix(0.963847,0,0,1.05147,74.4511,-127.413)">
                    <path d="M1085.8,862.894L1065.91,881.915L878.297,881.915L898.183,862.894L1085.8,862.894Z" style="fill:rgb(255,0,255);"/>
                </g>
                <g transform="matrix(0.869636,0,0,1.05147,65.4002,-187.07)">
                    <path d="M1085.8,862.894L1065.91,881.915L855.818,881.915L875.703,862.894L1085.8,862.894Z" style="fill:rgb(255,0,255);"/>
                </g>
                <g transform="matrix(0.936531,0,0,1.05147,-95.2375,-236.911)">
                    <path d="M1049.49,862.894L1029.6,881.915L835.932,881.915L855.818,862.894L1049.49,862.894Z" style="fill:rgb(255,0,255);"/>
                </g>
                <g transform="matrix(0.932755,0,0,1.05147,-166.458,-285.752)">
                    <path d="M1085.8,862.894L1065.91,881.915L871.38,881.915L891.266,862.894L1085.8,862.894Z" style="fill:rgb(255,0,255);"/>
                </g>
                <g transform="matrix(1,0,0,1.05157,38.9066,-330.681)">
                    <path d="M1161.02,862.894L1141.13,881.915L643.128,881.915L663.014,862.894L1161.02,862.894Z" style="fill:rgb(255,0,255);"/>
                </g>
            </g>
            <g transform="matrix(1.37906,0,0,1.37906,-679.165,-761.547)">
                <g transform="matrix(1,0,0,1.05147,503.783,-57.4127)">
                    <path d="M1032.68,862.894L1012.79,881.915L879.507,881.915L899.393,862.894L1032.68,862.894Z" style="fill:rgb(255,0,255);"/>
                </g>
                <g transform="matrix(1,0,0,1.05147,533.532,-127.413)">
                    <path d="M1052.05,862.894L1032.16,881.915L934.184,881.915L954.07,862.894L1052.05,862.894Z" style="fill:rgb(255,0,255);"/>
                </g>
                <g transform="matrix(1,0,0,1.05147,464.717,-187.07)">
                    <path d="M1156.07,862.894L1136.19,881.915L757.324,881.915L777.209,862.894L1156.07,862.894Z" style="fill:rgb(255,0,255);"/>
                </g>
                <g transform="matrix(1,0,0,1.05147,311.304,-236.911)">
                    <path d="M1085.8,862.894L1065.91,881.915L953.793,881.915L973.679,862.894L1085.8,862.894Z" style="fill:rgb(255,0,255);"/>
                </g>
                <g transform="matrix(1,0,0,1.05147,352.424,-285.752)">
                    <path d="M1085.8,862.894L1065.91,881.915L963.788,881.915L983.673,862.894L1085.8,862.894Z" style="fill:rgb(255,0,255);"/>
                </g>
                <g transform="matrix(1,0,0,1.05147,555.88,-236.911)">
                    <path d="M1085.8,862.894L1065.91,881.915L969.84,881.915L989.725,862.894L1085.8,862.894Z" style="fill:rgb(255,0,255);"/>
                </g>
                <g transform="matrix(1,0,0,1.05147,611.165,-285.752)">
                    <path d="M1059.24,862.894L1039.35,881.915L952.721,881.915L972.607,862.894L1059.24,862.894Z" style="fill:rgb(255,0,255);"/>
                </g>
                <g transform="matrix(1,0,0,1.05147,580.759,-330.592)">
                    <path d="M888.776,862.894L868.89,881.915L767.949,881.915L787.835,862.894L888.776,862.894Z" style="fill:rgb(255,0,255);"/>
                </g>
                <g transform="matrix(1,0,0,1.05147,808.09,-327.272)">
                    <path d="M888.776,862.894L868.89,881.915L786.775,881.915L806.66,862.894L888.776,862.894Z" style="fill:rgb(255,0,255);"/>
                </g>
            </g>
            <g transform="matrix(1.37906,0,0,1.37906,-679.165,-761.547)">
                <g transform="matrix(1,0,0,1,942.649,-13)">
                    <path d="M1110.49,862.894L1090.61,881.915L799.965,881.915L819.851,862.894L1110.49,862.894Z" style="fill:rgb(255,0,255);"/>
                </g>
                <g transform="matrix(1,0,0,1,854.918,-83.0007)">
                    <path d="M1034.64,862.894L1014.76,881.915L934.184,881.915L954.07,862.894L1034.64,862.894Z" style="fill:rgb(255,0,255);"/>
                </g>
                <g transform="matrix(1,0,0,1,911.552,-142.657)">
                    <path d="M996.988,862.894L977.103,881.915L908.627,881.915L928.512,862.894L996.988,862.894Z" style="fill:rgb(255,0,255);"/>
                </g>
                <g transform="matrix(1,0,0,1,876.311,-192.498)">
                    <path d="M1048.62,862.894L1028.74,881.915L969.84,881.915L989.725,862.894L1048.62,862.894Z" style="fill:rgb(255,0,255);"/>
                </g>
                <g transform="matrix(1,0,0,1,925.565,-241.339)">
                    <path d="M1028.32,862.894L1008.44,881.915L952.721,881.915L972.607,862.894L1028.32,862.894Z" style="fill:rgb(255,0,255);"/>
                </g>
                <g transform="matrix(1,0,0,1,1138.83,-282.86)">
                    <path d="M841.397,862.894L821.511,881.915L765.969,881.915L785.855,862.894L841.397,862.894Z" style="fill:rgb(255,0,255);"/>
                </g>
            </g>
            <g transform="matrix(1.37906,0,0,1.37906,-679.165,-761.547)">
                <g transform="matrix(1,0,0,1,1369.88,-13)">
                    <path d="M945.044,862.894L925.158,881.915L851.979,881.915L871.864,862.894L945.044,862.894Z" style="fill:rgb(255,0,255);"/>
                </g>
                <g transform="matrix(1,0,0,1,1288.24,-83.0007)">
                    <path d="M1057.58,862.894L1037.69,881.915L966.831,881.915L986.717,862.894L1057.58,862.894Z" style="fill:rgb(255,0,255);"/>
                </g>
                <g transform="matrix(1,0,0,1,1363.58,-142.657)">
                    <path d="M1006.51,862.894L986.62,881.915L918.034,881.915L937.919,862.894L1006.51,862.894Z" style="fill:rgb(255,0,255);"/>
                </g>
                <g transform="matrix(1,0,0,1,1328.78,-192.498)">
                    <path d="M1060.8,862.894L1040.91,881.915L974.267,881.915L994.152,862.894L1060.8,862.894Z" style="fill:rgb(255,0,255);"/>
                </g>
                <g transform="matrix(1,0,0,1,1377.59,-241.339)">
                    <path d="M1036.76,862.894L1016.87,881.915L936.121,881.915L956.006,862.894L1036.76,862.894Z" style="fill:rgb(255,0,255);"/>
                </g>
                <g transform="matrix(1,0,0,1,1597.98,-282.86)">
                    <path d="M982.913,862.894L963.027,881.915L550.168,881.915L570.053,862.894L982.913,862.894Z" style="fill:rgb(255,0,255);"/>
                </g>
            </g>
        </g>
    </g>
</svg>
